/* XPM */
static char * closeO_xpm[] = {

/* Values */
"45 58 6 1 ",

/* Colors */
"  c None",
". c #C72B1C",
"X c #FF6572",
"o c white",
"# c #DE7B6E",
"@ c #F4C9BE",

/* Pixels */
".........................................#@oo",
"...........................................@o",
"............................................@",
"............................................#",
".............................................",
".............................................",
".............................................",
".............................................",
".............................................",
".................oX......Xo..................",
".................XoX....XoX..................",
"..................XoX..XoX...................",
"...................XoXXoX....................",
"....................XooX.....................",
"....................XooX.....................",
"...................XoXXoX....................",
"..................XoX..XoX...................",
".................XoX....XoX..................",
".................oX......Xo..................",
".............................................",
".............................................",
".............................................",
".............................................",
".............................................",
".............................................",
".............................................",
".............................................",
".............................................",
".............................................",
".........................................#@oo",
"...........................................@o",
"............................................@",
"............................................#",
".............................................",
".............................................",
".............................................",
".............................................",
".............................................",
".................oX......Xo..................",
".................XoX....XoX..................",
"..................XoX..XoX...................",
"...................XoXXoX....................",
"....................XooX.....................",
"....................XooX.....................",
"...................XoXXoX....................",
"..................XoX..XoX...................",
".................XoX....XoX..................",
".................oX......Xo..................",
".............................................",
".............................................",
".............................................",
".............................................",
".............................................",
".............................................",
".............................................",
".............................................",
".............................................",
".............................................",
};
