/* XPM */
static char * frameATR_xpm[] = {

/* Values */
"8 32 3 1",

/* Colors */
"  c None",
". c #F3F3F3",
"X c #B2B2B2",

/* Pixels */
"XXXX    ",
"....XX  ",
"      X ",
"      X ",
"      .X",
"      .X",
"      .X",
"      .X",
"      .X",
"      .X",
"      .X",
"      .X",
"      .X",
"      .X",
"      .X",
"      .X",
"      .X",
"      .X",
"      .X",
"      .X",
"      .X",
"      .X",
"      .X",
"      .X",
"      .X",
"      .X",
"      .X",
"      .X",
"      .X",
"      .X",
"      .X",
"      .X",
};
