<svg width="5760" height="3240" viewBox="0 0 5760 3240" fill="none" xmlns="http://www.w3.org/2000/svg">
<rect width="5760" height="3240" fill="#444444"/>
<g clip-path="url(#clip0_102_2)">
<path d="M2759.5 921.5C2759.5 921.5 2814 912 2880 912C2946 912 3000.5 921.5 3000.5 921.5C3000.5 921.5 2932 1028.5 2853 1184C2774 1339.5 2729.5 1455 2729.5 1455L2376 1498.5C2376 1498.5 2330.5 1452 2294.5 1412.5C2258.5 1373 2212.5 1318.5 2212.5 1318.5C2212.5 1318.5 2303 1307.5 2410 1298.5C2517 1289.5 2607 1284.5 2607 1284.5C2607 1284.5 2648 1179.5 2681.5 1100C2715 1020.5 2759.5 921.5 2759.5 921.5Z" fill="url(#paint0_linear_102_2)"/>
<path d="M3547 1319.16C3547 1319.16 3572.87 1368.06 3593.27 1430.83C3613.66 1493.6 3621.47 1548.37 3621.47 1548.37C3621.47 1548.37 3498.54 1516.29 3326.24 1489.2C3153.94 1462.12 3030.34 1455.49 3030.34 1455.49L2879.73 1132.74C2879.73 1132.74 2909.89 1075.09 2936.34 1028.65C2962.78 982.205 3000.4 921.615 3000.4 921.615C3000.4 921.615 3038.82 1004.29 3080.45 1103.27C3122.07 1202.25 3154.64 1286.3 3154.64 1286.3C3154.64 1286.3 3267.17 1292.85 3353.13 1300.14C3439.09 1307.43 3547 1319.16 3547 1319.16Z" fill="url(#paint1_linear_102_2)"/>
<path d="M3412.28 2190.93C3412.28 2190.93 3373.78 2230.65 3320.38 2269.45C3266.99 2308.24 3217.31 2332.59 3217.31 2332.59C3217.31 2332.59 3209.84 2205.76 3182.35 2033.52C3154.86 1861.29 3122.97 1741.69 3122.97 1741.69L3383.39 1498.71C3383.39 1498.71 3447.53 1509.59 3499.87 1520.39C3552.22 1531.18 3621.47 1548.23 3621.47 1548.23C3621.47 1548.23 3554.71 1610.33 3473.44 1680.5C3392.17 1750.68 3322.29 1807.62 3322.29 1807.62C3322.29 1807.62 3350.84 1916.67 3370.47 2000.68C3390.09 2084.68 3412.28 2190.93 3412.28 2190.93Z" fill="url(#paint2_linear_102_2)"/>
<path d="M2138.07 1547.71C2138.07 1547.71 2145.87 1492.94 2166.27 1430.17C2186.66 1367.4 2212.54 1318.5 2212.54 1318.5C2212.54 1318.5 2293.14 1416.72 2416.61 1539.9C2540.09 1663.09 2636.19 1741.1 2636.19 1741.1L2568.32 2090.74C2568.32 2090.74 2510.03 2119.64 2461.34 2141.68C2412.65 2163.71 2346.6 2190.62 2346.6 2190.62C2346.6 2190.62 2364.11 2101.15 2388.61 1996.6C2413.12 1892.06 2436.18 1804.92 2436.18 1804.92C2436.18 1804.92 2348.98 1733.48 2283.73 1677.05C2218.47 1620.62 2138.07 1547.71 2138.07 1547.71Z" fill="url(#paint3_linear_102_2)"/>
<path d="M2541.56 2332.3C2541.56 2332.3 2491.88 2307.95 2438.49 2269.15C2385.09 2230.36 2346.58 2190.64 2346.58 2190.64C2346.58 2190.64 2464.89 2144.34 2620.21 2064.97C2775.52 1985.6 2879.41 1918.32 2879.41 1918.32L3190.97 2090.91C3190.97 2090.91 3200.45 2155.27 3206.35 2208.39C3212.26 2261.51 3217.44 2332.63 3217.44 2332.63C3217.44 2332.63 3137.76 2288.34 3045.9 2232.73C2954.05 2177.12 2878.3 2128.26 2878.3 2128.26C2878.3 2128.26 2783.41 2189.11 2709.58 2233.73C2635.75 2278.36 2541.56 2332.3 2541.56 2332.3Z" fill="url(#paint4_linear_102_2)"/>
</g>
<defs>
<linearGradient id="paint0_linear_102_2" x1="2893.5" y1="1096.5" x2="2376" y2="1497" gradientUnits="userSpaceOnUse">
<stop stop-color="#0094FF"/>
<stop offset="1" stop-color="#0066B0"/>
</linearGradient>
<linearGradient id="paint1_linear_102_2" x1="3421.97" y1="1500.68" x2="2881.16" y2="1132.27" gradientUnits="userSpaceOnUse">
<stop stop-color="#0094FF"/>
<stop offset="1" stop-color="#0066B0"/>
</linearGradient>
<linearGradient id="paint2_linear_102_2" x1="3201.01" y1="2128.12" x2="3384.27" y2="1499.93" gradientUnits="userSpaceOnUse">
<stop stop-color="#0094FF"/>
<stop offset="1" stop-color="#0066B0"/>
</linearGradient>
<linearGradient id="paint3_linear_102_2" x1="2345.91" y1="1474.34" x2="2566.89" y2="2090.28" gradientUnits="userSpaceOnUse">
<stop stop-color="#0094FF"/>
<stop offset="1" stop-color="#0066B0"/>
</linearGradient>
<linearGradient id="paint4_linear_102_2" x1="2536.01" y1="2111.95" x2="3190.09" y2="2092.12" gradientUnits="userSpaceOnUse">
<stop stop-color="#0094FF"/>
<stop offset="1" stop-color="#0066B0"/>
</linearGradient>
<clipPath id="clip0_102_2">
<rect width="1500" height="1500" fill="white" transform="translate(2130 870)"/>
</clipPath>
</defs>
</svg>
