/* XPM */
static char * closeA_xpm[] = {

/* Values */
"45 58 8 1 ",

/* Colors */
"  c None",
". c #F3F3F3",
"X c black",
"o c gray80",
"@ c #F2707A",
"$ c #FFA2AA",
"# c #DE7B6E",
"$ c #F4C9BE",

/* Pixels */
".............................................",
".............................................",
".............................................",
".............................................",
".............................................",
".............................................",
".............................................",
".............................................",
".............................................",
".................Xo......oX..................",
".................oXo....oXo..................",
"..................oXo..oXo...................",
"...................oXooXo....................",
"....................oXXo.....................",
"....................oXXo.....................",
"...................oXooXo....................",
"..................oXo..oXo...................",
".................oXo....oXo..................",
".................Xo......oX..................",
".............................................",
".............................................",
".............................................",
".............................................",
".............................................",
".............................................",
".............................................",
".............................................",
".............................................",
".............................................",
"@@@@@@@@@@@@@@@@@@@@@@@@@@@@@@@@@@@@@@@@@#$..",
"@@@@@@@@@@@@@@@@@@@@@@@@@@@@@@@@@@@@@@@@@@@$.",
"@@@@@@@@@@@@@@@@@@@@@@@@@@@@@@@@@@@@@@@@@@@@$",
"@@@@@@@@@@@@@@@@@@@@@@@@@@@@@@@@@@@@@@@@@@@@#",
"@@@@@@@@@@@@@@@@@@@@@@@@@@@@@@@@@@@@@@@@@@@@@",
"@@@@@@@@@@@@@@@@@@@@@@@@@@@@@@@@@@@@@@@@@@@@@",
"@@@@@@@@@@@@@@@@@@@@@@@@@@@@@@@@@@@@@@@@@@@@@",
"@@@@@@@@@@@@@@@@@@@@@@@@@@@@@@@@@@@@@@@@@@@@@",
"@@@@@@@@@@@@@@@@@@@@@@@@@@@@@@@@@@@@@@@@@@@@@",
"@@@@@@@@@@@@@@@@@.$@@@@@@$.@@@@@@@@@@@@@@@@@@",
"@@@@@@@@@@@@@@@@@$.$@@@@$.$@@@@@@@@@@@@@@@@@@",
"@@@@@@@@@@@@@@@@@@$.$@@$.$@@@@@@@@@@@@@@@@@@@",
"@@@@@@@@@@@@@@@@@@@$.$$.$@@@@@@@@@@@@@@@@@@@@",
"@@@@@@@@@@@@@@@@@@@@$..$@@@@@@@@@@@@@@@@@@@@@",
"@@@@@@@@@@@@@@@@@@@@$..$@@@@@@@@@@@@@@@@@@@@@",
"@@@@@@@@@@@@@@@@@@@$.$$.$@@@@@@@@@@@@@@@@@@@@",
"@@@@@@@@@@@@@@@@@@$.$@@$.$@@@@@@@@@@@@@@@@@@@",
"@@@@@@@@@@@@@@@@@$.$@@@@$.$@@@@@@@@@@@@@@@@@@",
"@@@@@@@@@@@@@@@@@.$@@@@@@$.@@@@@@@@@@@@@@@@@@",
"@@@@@@@@@@@@@@@@@@@@@@@@@@@@@@@@@@@@@@@@@@@@@",
"@@@@@@@@@@@@@@@@@@@@@@@@@@@@@@@@@@@@@@@@@@@@@",
"@@@@@@@@@@@@@@@@@@@@@@@@@@@@@@@@@@@@@@@@@@@@@",
"@@@@@@@@@@@@@@@@@@@@@@@@@@@@@@@@@@@@@@@@@@@@@",
"@@@@@@@@@@@@@@@@@@@@@@@@@@@@@@@@@@@@@@@@@@@@@",
"@@@@@@@@@@@@@@@@@@@@@@@@@@@@@@@@@@@@@@@@@@@@@",
"@@@@@@@@@@@@@@@@@@@@@@@@@@@@@@@@@@@@@@@@@@@@@",
"@@@@@@@@@@@@@@@@@@@@@@@@@@@@@@@@@@@@@@@@@@@@@",
"@@@@@@@@@@@@@@@@@@@@@@@@@@@@@@@@@@@@@@@@@@@@@",
"@@@@@@@@@@@@@@@@@@@@@@@@@@@@@@@@@@@@@@@@@@@@@",
};
