/* XPM */
static char * frameABL_xpm[] = {

/* Values */
"8 8 3 1",

/* Colors */
"  c None",
". c #F3F3F3",
"X c #B2B2B2",

/* Pixels */
"X.      ",
"X.      ",
"X.      ",
"X.      ",
" X      ",
" X      ",
"  XX....",
"    XXXX",
};
