/* XPM */
static char * closeA_xpm[] = {

/* Values */
"45 58 6 1 ",

/* Colors */
"  c None",
". c white",
"X c black",
"o c gray80",
"@ c #F2707A",
"$ c #FFA2AA",

/* Pixels */
".............................................",
".............................................",
".............................................",
".............................................",
".............................................",
".............................................",
".............................................",
".............................................",
".............................................",
".................Xo......oX..................",
".................oXo....oXo..................",
"..................oXo..oXo...................",
"...................oXooXo....................",
"....................oXXo.....................",
"....................oXXo.....................",
"...................oXooXo....................",
"..................oXo..oXo...................",
".................oXo....oXo..................",
".................Xo......oX..................",
".............................................",
".............................................",
".............................................",
".............................................",
".............................................",
".............................................",
".............................................",
".............................................",
".............................................",
".............................................",
"@@@@@@@@@@@@@@@@@@@@@@@@@@@@@@@@@@@@@@@@@@@@@",
"@@@@@@@@@@@@@@@@@@@@@@@@@@@@@@@@@@@@@@@@@@@@@",
"@@@@@@@@@@@@@@@@@@@@@@@@@@@@@@@@@@@@@@@@@@@@@",
"@@@@@@@@@@@@@@@@@@@@@@@@@@@@@@@@@@@@@@@@@@@@@",
"@@@@@@@@@@@@@@@@@@@@@@@@@@@@@@@@@@@@@@@@@@@@@",
"@@@@@@@@@@@@@@@@@@@@@@@@@@@@@@@@@@@@@@@@@@@@@",
"@@@@@@@@@@@@@@@@@@@@@@@@@@@@@@@@@@@@@@@@@@@@@",
"@@@@@@@@@@@@@@@@@@@@@@@@@@@@@@@@@@@@@@@@@@@@@",
"@@@@@@@@@@@@@@@@@@@@@@@@@@@@@@@@@@@@@@@@@@@@@",
"@@@@@@@@@@@@@@@@@.$@@@@@@$.@@@@@@@@@@@@@@@@@@",
"@@@@@@@@@@@@@@@@@$.$@@@@$.$@@@@@@@@@@@@@@@@@@",
"@@@@@@@@@@@@@@@@@@$.$@@$.$@@@@@@@@@@@@@@@@@@@",
"@@@@@@@@@@@@@@@@@@@$.$$.$@@@@@@@@@@@@@@@@@@@@",
"@@@@@@@@@@@@@@@@@@@@$..$@@@@@@@@@@@@@@@@@@@@@",
"@@@@@@@@@@@@@@@@@@@@$..$@@@@@@@@@@@@@@@@@@@@@",
"@@@@@@@@@@@@@@@@@@@$.$$.$@@@@@@@@@@@@@@@@@@@@",
"@@@@@@@@@@@@@@@@@@$.$@@$.$@@@@@@@@@@@@@@@@@@@",
"@@@@@@@@@@@@@@@@@$.$@@@@$.$@@@@@@@@@@@@@@@@@@",
"@@@@@@@@@@@@@@@@@.$@@@@@@$.@@@@@@@@@@@@@@@@@@",
"@@@@@@@@@@@@@@@@@@@@@@@@@@@@@@@@@@@@@@@@@@@@@",
"@@@@@@@@@@@@@@@@@@@@@@@@@@@@@@@@@@@@@@@@@@@@@",
"@@@@@@@@@@@@@@@@@@@@@@@@@@@@@@@@@@@@@@@@@@@@@",
"@@@@@@@@@@@@@@@@@@@@@@@@@@@@@@@@@@@@@@@@@@@@@",
"@@@@@@@@@@@@@@@@@@@@@@@@@@@@@@@@@@@@@@@@@@@@@",
"@@@@@@@@@@@@@@@@@@@@@@@@@@@@@@@@@@@@@@@@@@@@@",
"@@@@@@@@@@@@@@@@@@@@@@@@@@@@@@@@@@@@@@@@@@@@@",
"@@@@@@@@@@@@@@@@@@@@@@@@@@@@@@@@@@@@@@@@@@@@@",
"@@@@@@@@@@@@@@@@@@@@@@@@@@@@@@@@@@@@@@@@@@@@@",
"@@@@@@@@@@@@@@@@@@@@@@@@@@@@@@@@@@@@@@@@@@@@@",
};
