/* XPM */
static char * frameABR_xpm[] = {

/* Values */
"8 8 3 1",

/* Colors */
"  c None",
". c white",
"X c #999999",

/* Pixels */
"      .X",
"      .X",
"      .X",
"      .X",
"      .X",
"      .X",
".......X",
"XXXXXXXX",
};
