/* XPM */
static char * icewmbgO_xpm[] = {

/* Values */
"47 47 4 1",

/* Colors */
"  c #F3F3F3",
". c #F9F9F9",
"- c #EEEEEE",
"= c #E5E5E5",

/* Pixels */
"                                               ",
"                                               ",
"     -------------------------------------     ",
"    -.....................................-    ",
"   -.......................................-   ",
"  -.........................................=  ",
"  -.........................................=  ",
"  -.........................................=  ",
"  -.........................................=  ",
"  -.........................................=  ",
"  -.........................................=  ",
"  -.........................................=  ",
"  -.........................................=  ",
"  -.........................................=  ",
"  -.........................................=  ",
"  -.........................................=  ",
"  -.........................................=  ",
"  -.........................................=  ",
"  -.........................................=  ",
"  -.........................................=  ",
"  -.........................................=  ",
"  -.........................................=  ",
"  -.........................................=  ",
"  -.........................................=  ",
"  -.........................................=  ",
"  -.........................................=  ",
"  -.........................................=  ",
"  -.........................................=  ",
"  -.........................................=  ",
"  -.........................................=  ",
"  -.........................................=  ",
"  -.........................................=  ",
"  -.........................................=  ",
"  -.........................................=  ",
"  -.........................................=  ",
"  -.........................................=  ",
"  -.........................................=  ",
"  -.........................................=  ",
"  -.........................................=  ",
"  -.........................................=  ",
"  -.........................................=  ",
"  -.........................................=  ",
"   -.......................................=   ",
"    -.....................................=    ",
"     =====================================     ",
"                                               ",
"                                               ",
};
