/* XPM */
static char * toolbuttonbgA_xpm[] = {

/* Values */
"47 47 3 1",

/* Colors */
"  c #F3F3F3",
". c #F7F7F7",
"- c #EEEEEE",

/* Pixels */
"                                               ",
"                                               ",
"     -------------------------------------     ",
"    -.....................................-    ",
"   -.......................................-   ",
"  -.........................................-  ",
"  -.........................................-  ",
"  -.........................................-  ",
"  -.........................................-  ",
"  -.........................................-  ",
"  -.........................................-  ",
"  -.........................................-  ",
"  -.........................................-  ",
"  -.........................................-  ",
"  -.........................................-  ",
"  -.........................................-  ",
"  -.........................................-  ",
"  -.........................................-  ",
"  -.........................................-  ",
"  -.........................................-  ",
"  -.........................................-  ",
"  -.........................................-  ",
"  -.........................................-  ",
"  -.........................................-  ",
"  -.........................................-  ",
"  -.........................................-  ",
"  -.........................................-  ",
"  -.........................................-  ",
"  -.........................................-  ",
"  -.........................................-  ",
"  -.........................................-  ",
"  -.........................................-  ",
"  -.........................................-  ",
"  -.........................................-  ",
"  -.........................................-  ",
"  -.........................................-  ",
"  -.........................................-  ",
"  -.........................................-  ",
"  -.........................................-  ",
"  -.........................................-  ",
"  -.........................................-  ",
"  -.........................................-  ",
"   -.......................................-   ",
"    -.....................................-    ",
"     -------------------------------------     ",
"                                               ",
"                                               ",
};
