/* XPM */
static char * closeO_xpm[] = {

/* Values */
"45 58 7 1 ",

/* Colors */
"  c None",
"+ c #0078D4",
"W c #FFFFFF",
"@ c #7DBAE9",
"1 c #3030BB",
"2 c #353566",
"3 c #202020",

/* Pixels */
"+++++++++++++++++++++++++++++++++++++++++1233",
"+++++++++++++++++++++++++++++++++++++++++++23",
"++++++++++++++++++++++++++++++++++++++++++++2",
"++++++++++++++++++++++++++++++++++++++++++++1",
"+++++++++++++++++++++++++++++++++++++++++++++",
"+++++++++++++++++++++++++++++++++++++++++++++",
"+++++++++++++++++++++++++++++++++++++++++++++",
"+++++++++++++++++++++++++++++++++++++++++++++",
"+++++++++++++++++++++++++++++++++++++++++++++",
"+++++++++++++++++W@++++++@W++++++++++++++++++",
"+++++++++++++++++@W@++++@W@++++++++++++++++++",
"++++++++++++++++++@W@++@W@+++++++++++++++++++",
"+++++++++++++++++++@W@@W@++++++++++++++++++++",
"++++++++++++++++++++@WW@+++++++++++++++++++++",
"++++++++++++++++++++@WW@+++++++++++++++++++++",
"+++++++++++++++++++@W@@W@++++++++++++++++++++",
"++++++++++++++++++@W@++@W@+++++++++++++++++++",
"+++++++++++++++++@W@++++@W@++++++++++++++++++",
"+++++++++++++++++W@++++++@W++++++++++++++++++",
"+++++++++++++++++++++++++++++++++++++++++++++",
"+++++++++++++++++++++++++++++++++++++++++++++",
"+++++++++++++++++++++++++++++++++++++++++++++",
"+++++++++++++++++++++++++++++++++++++++++++++",
"+++++++++++++++++++++++++++++++++++++++++++++",
"+++++++++++++++++++++++++++++++++++++++++++++",
"+++++++++++++++++++++++++++++++++++++++++++++",
"+++++++++++++++++++++++++++++++++++++++++++++",
"+++++++++++++++++++++++++++++++++++++++++++++",
"+++++++++++++++++++++++++++++++++++++++++++++",
"+++++++++++++++++++++++++++++++++++++++++1233",
"+++++++++++++++++++++++++++++++++++++++++++23",
"++++++++++++++++++++++++++++++++++++++++++++2",
"++++++++++++++++++++++++++++++++++++++++++++1",
"+++++++++++++++++++++++++++++++++++++++++++++",
"+++++++++++++++++++++++++++++++++++++++++++++",
"+++++++++++++++++++++++++++++++++++++++++++++",
"+++++++++++++++++++++++++++++++++++++++++++++",
"+++++++++++++++++++++++++++++++++++++++++++++",
"+++++++++++++++++W@++++++@W++++++++++++++++++",
"+++++++++++++++++@W@++++@W@++++++++++++++++++",
"++++++++++++++++++@W@++@W@+++++++++++++++++++",
"+++++++++++++++++++@W@@W@++++++++++++++++++++",
"++++++++++++++++++++@WW@+++++++++++++++++++++",
"++++++++++++++++++++@WW@+++++++++++++++++++++",
"+++++++++++++++++++@W@@W@++++++++++++++++++++",
"++++++++++++++++++@W@++@W@+++++++++++++++++++",
"+++++++++++++++++@W@++++@W@++++++++++++++++++",
"+++++++++++++++++W@++++++@W++++++++++++++++++",
"+++++++++++++++++++++++++++++++++++++++++++++",
"+++++++++++++++++++++++++++++++++++++++++++++",
"+++++++++++++++++++++++++++++++++++++++++++++",
"+++++++++++++++++++++++++++++++++++++++++++++",
"+++++++++++++++++++++++++++++++++++++++++++++",
"+++++++++++++++++++++++++++++++++++++++++++++",
"+++++++++++++++++++++++++++++++++++++++++++++",
"+++++++++++++++++++++++++++++++++++++++++++++",
"+++++++++++++++++++++++++++++++++++++++++++++",
"+++++++++++++++++++++++++++++++++++++++++++++",
};
