/* XPM */
static char * frameATL_xpm[] = {

/* Values */
"8 31 3 1",

/* Colors */
"  c None",
". c #191919",
"B c #0078D4",

/* Pixels */
"    BBBB",
"  BB....",
" B      ",
" B      ",
"B.      ",
"B.      ",
"B.      ",
"B.      ",
"B.      ",
"B.      ",
"B.      ",
"B.      ",
"B.      ",
"B.      ",
"B.      ",
"B.      ",
"B.      ",
"B.      ",
"B.      ",
"B.      ",
"B.      ",
"B.      ",
"B.      ",
"B.      ",
"B.      ",
"B.      ",
"B.      ",
"B.      ",
"B.      ",
"B.      ",
"B.      ",
};
