/* XPM */
static char * closeA_xpm[] = {

/* Values */
"45 58 6 1 ",

/* Colors */
"  c None",
". c #0078D4",
"# c #7DBAE9",
"+ c #0068C4",
"W c #FFFFFF",
"@ c #7DBAE9",

/* Pixels */
".............................................",
".............................................",
".............................................",
".............................................",
".............................................",
".............................................",
".............................................",
".............................................",
".............................................",
".................W#......#W..................",
".................#W#....#W#..................",
"..................#W#..#W#...................",
"...................#W##W#....................",
"....................#WW#.....................",
"....................#WW#.....................",
"...................#W##W#....................",
"..................#W#..#W#...................",
".................#W#....#W#..................",
".................W#......#W..................",
".............................................",
".............................................",
".............................................",
".............................................",
".............................................",
".............................................",
".............................................",
".............................................",
".............................................",
".............................................",
"+++++++++++++++++++++++++++++++++++++++++....",
"+++++++++++++++++++++++++++++++++++++++++++..",
"++++++++++++++++++++++++++++++++++++++++++++.",
"++++++++++++++++++++++++++++++++++++++++++++.",
"+++++++++++++++++++++++++++++++++++++++++++++",
"+++++++++++++++++++++++++++++++++++++++++++++",
"+++++++++++++++++++++++++++++++++++++++++++++",
"+++++++++++++++++++++++++++++++++++++++++++++",
"+++++++++++++++++++++++++++++++++++++++++++++",
"+++++++++++++++++W@++++++@W++++++++++++++++++",
"+++++++++++++++++@W@++++@W@++++++++++++++++++",
"++++++++++++++++++@W@++@W@+++++++++++++++++++",
"+++++++++++++++++++@W@@W@++++++++++++++++++++",
"++++++++++++++++++++@WW@+++++++++++++++++++++",
"++++++++++++++++++++@WW@+++++++++++++++++++++",
"+++++++++++++++++++@W@@W@++++++++++++++++++++",
"++++++++++++++++++@W@++@W@+++++++++++++++++++",
"+++++++++++++++++@W@++++@W@++++++++++++++++++",
"+++++++++++++++++W@++++++@W++++++++++++++++++",
"+++++++++++++++++++++++++++++++++++++++++++++",
"+++++++++++++++++++++++++++++++++++++++++++++",
"+++++++++++++++++++++++++++++++++++++++++++++",
"+++++++++++++++++++++++++++++++++++++++++++++",
"+++++++++++++++++++++++++++++++++++++++++++++",
"+++++++++++++++++++++++++++++++++++++++++++++",
"+++++++++++++++++++++++++++++++++++++++++++++",
"+++++++++++++++++++++++++++++++++++++++++++++",
"+++++++++++++++++++++++++++++++++++++++++++++",
"+++++++++++++++++++++++++++++++++++++++++++++",
};
