/* XPM */
static char * closeO_xpm[] = {

/* Values */
"45 58 5 1 ",

/* Colors */
"  c None",
". c #0078D4",
"+ c #0070CB",
"W c #FFFFFF",
"@ c #7DBAE9",

/* Pixels */
"+++++++++++++++++++++++++++++++++++++++++....",
"+++++++++++++++++++++++++++++++++++++++++++..",
"++++++++++++++++++++++++++++++++++++++++++++.",
"++++++++++++++++++++++++++++++++++++++++++++.",
"+++++++++++++++++++++++++++++++++++++++++++++",
"+++++++++++++++++++++++++++++++++++++++++++++",
"+++++++++++++++++++++++++++++++++++++++++++++",
"+++++++++++++++++++++++++++++++++++++++++++++",
"+++++++++++++++++++++++++++++++++++++++++++++",
"+++++++++++++++++W@++++++@W++++++++++++++++++",
"+++++++++++++++++@W@++++@W@++++++++++++++++++",
"++++++++++++++++++@W@++@W@+++++++++++++++++++",
"+++++++++++++++++++@W@@W@++++++++++++++++++++",
"++++++++++++++++++++@WW@+++++++++++++++++++++",
"++++++++++++++++++++@WW@+++++++++++++++++++++",
"+++++++++++++++++++@W@@W@++++++++++++++++++++",
"++++++++++++++++++@W@++@W@+++++++++++++++++++",
"+++++++++++++++++@W@++++@W@++++++++++++++++++",
"+++++++++++++++++W@++++++@W++++++++++++++++++",
"+++++++++++++++++++++++++++++++++++++++++++++",
"+++++++++++++++++++++++++++++++++++++++++++++",
"+++++++++++++++++++++++++++++++++++++++++++++",
"+++++++++++++++++++++++++++++++++++++++++++++",
"+++++++++++++++++++++++++++++++++++++++++++++",
"+++++++++++++++++++++++++++++++++++++++++++++",
"+++++++++++++++++++++++++++++++++++++++++++++",
"+++++++++++++++++++++++++++++++++++++++++++++",
"+++++++++++++++++++++++++++++++++++++++++++++",
"+++++++++++++++++++++++++++++++++++++++++++++",
"+++++++++++++++++++++++++++++++++++++++++....",
"+++++++++++++++++++++++++++++++++++++++++++..",
"++++++++++++++++++++++++++++++++++++++++++++.",
"++++++++++++++++++++++++++++++++++++++++++++.",
"+++++++++++++++++++++++++++++++++++++++++++++",
"+++++++++++++++++++++++++++++++++++++++++++++",
"+++++++++++++++++++++++++++++++++++++++++++++",
"+++++++++++++++++++++++++++++++++++++++++++++",
"+++++++++++++++++++++++++++++++++++++++++++++",
"+++++++++++++++++W@++++++@W++++++++++++++++++",
"+++++++++++++++++@W@++++@W@++++++++++++++++++",
"++++++++++++++++++@W@++@W@+++++++++++++++++++",
"+++++++++++++++++++@W@@W@++++++++++++++++++++",
"++++++++++++++++++++@WW@+++++++++++++++++++++",
"++++++++++++++++++++@WW@+++++++++++++++++++++",
"+++++++++++++++++++@W@@W@++++++++++++++++++++",
"++++++++++++++++++@W@++@W@+++++++++++++++++++",
"+++++++++++++++++@W@++++@W@++++++++++++++++++",
"+++++++++++++++++W@++++++@W++++++++++++++++++",
"+++++++++++++++++++++++++++++++++++++++++++++",
"+++++++++++++++++++++++++++++++++++++++++++++",
"+++++++++++++++++++++++++++++++++++++++++++++",
"+++++++++++++++++++++++++++++++++++++++++++++",
"+++++++++++++++++++++++++++++++++++++++++++++",
"+++++++++++++++++++++++++++++++++++++++++++++",
"+++++++++++++++++++++++++++++++++++++++++++++",
"+++++++++++++++++++++++++++++++++++++++++++++",
"+++++++++++++++++++++++++++++++++++++++++++++",
"+++++++++++++++++++++++++++++++++++++++++++++",
};
