/* XPM */
static char * frameABL_xpm[] = {

/* Values */
"8 8 3 1",

/* Colors */
"  c None",
". c black",
"X c #666666",

/* Pixels */
"X.      ",
"X.      ",
"X.      ",
"X.      ",
"X.      ",
"X.      ",
"X.......",
"XXXXXXXX",
};
