/* XPM */
static char * toolbuttonbgO_xpm[] = {

/* Values */
"47 47 4 1",

/* Colors */
"  c None",
". c #202020",
"+ c #0078D4",
"# c #386983",

/* Pixels */
"...............................................",
"...............................................",
"...............................................",
"...............................................",
"...............................................",
"...............................................",
"...............................................",
"...............................................",
"...............................................",
"...............................................",
"...............................................",
"...............................................",
"...............................................",
"...............................................",
"...............................................",
"...............................................",
"...............................................",
"...............................................",
"...............................................",
"...............................................",
"...............................................",
"...............................................",
"...............................................",
"...............................................",
"...............................................",
"...............................................",
"...............................................",
"...............................................",
"...............................................",
"...............................................",
"...............................................",
"...............................................",
"...............................................",
"...............................................",
"...............................................",
"...............................................",
"...............................................",
"...............................................",
"...............................................",
"...............................................",
"...............................................",
"......#+++++++++++++++++++++++++++++++++#......",
"......+++++++++++++++++++++++++++++++++++......",
"......#+++++++++++++++++++++++++++++++++#......",
"...............................................",
"...............................................",
"...............................................",
};
