/* XPM */
static char * frameITR_xpm[] = {

/* Values */
"8 31 3 1",

/* Colors */
"  c None",
". c #191919",
"B c #3B3B3B",

/* Pixels */
"BBBBBBBB",
".......B",
"      .B",
"      .B",
"      .B",
"      .B",
"      .B",
"      .B",
"      .B",
"      .B",
"      .B",
"      .B",
"      .B",
"      .B",
"      .B",
"      .B",
"      .B",
"      .B",
"      .B",
"      .B",
"      .B",
"      .B",
"      .B",
"      .B",
"      .B",
"      .B",
"      .B",
"      .B",
"      .B",
"      .B",
"      .B",
};
