/* XPM */
static char * restoreA_xpm[] = {

/* Values */
"45 58 4 1 ",

/* Colors */
"  c None",
". c #202020",
"+ c #0078D4",
"W c #FFFFFF",


/* Pixels */
".............................................",
".............................................",
".............................................",
".............................................",
".............................................",
".............................................",
".............................................",
".............................................",
".............................................",
"...................WWWWWWWW..................",
"...................W......W..................",
".................WWWWWWWW.W..................",
".................W......W.W..................",
".................W......W.W..................",
".................W......W.W..................",
".................W......W.W..................",
".................W......WWW..................",
".................W......W....................",
".................WWWWWWWW....................",
".............................................",
".............................................",
".............................................",
".............................................",
".............................................",
".............................................",
".............................................",
".............................................",
".............................................",
".............................................",
"+++++++++++++++++++++++++++++++++++++++++++++",
"+++++++++++++++++++++++++++++++++++++++++++++",
"+++++++++++++++++++++++++++++++++++++++++++++",
"+++++++++++++++++++++++++++++++++++++++++++++",
"+++++++++++++++++++++++++++++++++++++++++++++",
"+++++++++++++++++++++++++++++++++++++++++++++",
"+++++++++++++++++++++++++++++++++++++++++++++",
"+++++++++++++++++++++++++++++++++++++++++++++",
"+++++++++++++++++++++++++++++++++++++++++++++",
"+++++++++++++++++++WWWWWWWW++++++++++++++++++",
"+++++++++++++++++++W++++++W++++++++++++++++++",
"+++++++++++++++++WWWWWWWW+W++++++++++++++++++",
"+++++++++++++++++W++++++W+W++++++++++++++++++",
"+++++++++++++++++W++++++W+W++++++++++++++++++",
"+++++++++++++++++W++++++W+W++++++++++++++++++",
"+++++++++++++++++W++++++W+W++++++++++++++++++",
"+++++++++++++++++W++++++WWW++++++++++++++++++",
"+++++++++++++++++W++++++W++++++++++++++++++++",
"+++++++++++++++++WWWWWWWW++++++++++++++++++++",
"+++++++++++++++++++++++++++++++++++++++++++++",
"+++++++++++++++++++++++++++++++++++++++++++++",
"+++++++++++++++++++++++++++++++++++++++++++++",
"+++++++++++++++++++++++++++++++++++++++++++++",
"+++++++++++++++++++++++++++++++++++++++++++++",
"+++++++++++++++++++++++++++++++++++++++++++++",
"+++++++++++++++++++++++++++++++++++++++++++++",
"+++++++++++++++++++++++++++++++++++++++++++++",
"+++++++++++++++++++++++++++++++++++++++++++++",
"+++++++++++++++++++++++++++++++++++++++++++++",
};
