/* XPM */
static char * taskbuttonbgO_xpm[] = {

/* Values */
"47 47 6 1",

/* Colors */
"  c #F3F3F3",
". c #F9F9F9",
"- c #EEEEEE",
"= c #E5E5E5",
"+ c #898989",
"# c #C4C4C4",

/* Pixels */
"                                               ",
"                                               ",
"     -------------------------------------     ",
"    -.....................................-    ",
"   -.......................................-   ",
"  -.........................................=  ",
"  -.........................................=  ",
"  -.........................................=  ",
"  -.........................................=  ",
"  -.........................................=  ",
"  -.........................................=  ",
"  -.........................................=  ",
"  -.........................................=  ",
"  -.........................................=  ",
"  -.........................................=  ",
"  -.........................................=  ",
"  -.........................................=  ",
"  -.........................................=  ",
"  -.........................................=  ",
"  -.........................................=  ",
"  -.........................................=  ",
"  -.........................................=  ",
"  -.........................................=  ",
"  -.........................................=  ",
"  -.........................................=  ",
"  -.........................................=  ",
"  -.........................................=  ",
"  -.........................................=  ",
"  -.........................................=  ",
"  -.........................................=  ",
"  -.........................................=  ",
"  -.........................................=  ",
"  -.........................................=  ",
"  -.........................................=  ",
"  -.........................................=  ",
"  -.........................................=  ",
"  -.........................................=  ",
"  -.........................................=  ",
"  -.........................................=  ",
"  -.........................................=  ",
"  -.........................................=  ",
"  -............#+++++++++++++++#............=  ",
"   -...........+++++++++++++++++...........=   ",
"    -..........#+++++++++++++++#..........=    ",
"     =====================================     ",
"                                               ",
"                                               ",
};
