/* XPM */
static char * taskbuttonactive_xpm[] = {

/* Values */
"47 47 5 1",

/* Colors */
"  c #F3F3F3",
". c #F7F7F7",
"- c #EEEEEE",
"+ c #0078D4",
"# c #84BCE7",

/* Pixels */
"                                               ",
"                                               ",
"     -------------------------------------     ",
"    -.....................................-    ",
"   -.......................................-   ",
"  -.........................................-  ",
"  -.........................................-  ",
"  -.........................................-  ",
"  -.........................................-  ",
"  -.........................................-  ",
"  -.........................................-  ",
"  -.........................................-  ",
"  -.........................................-  ",
"  -.........................................-  ",
"  -.........................................-  ",
"  -.........................................-  ",
"  -.........................................-  ",
"  -.........................................-  ",
"  -.........................................-  ",
"  -.........................................-  ",
"  -.........................................-  ",
"  -.........................................-  ",
"  -.........................................-  ",
"  -.........................................-  ",
"  -.........................................-  ",
"  -.........................................-  ",
"  -.........................................-  ",
"  -.........................................-  ",
"  -.........................................-  ",
"  -.........................................-  ",
"  -.........................................-  ",
"  -.........................................-  ",
"  -.........................................-  ",
"  -.........................................-  ",
"  -.........................................-  ",
"  -.........................................-  ",
"  -.........................................-  ",
"  -.........................................-  ",
"  -.........................................-  ",
"  -.........................................-  ",
"  -.........................................-  ",
"  -.................#+++++#.................-  ",
"   -................+++++++................-   ",
"    -...............#+++++#...............-    ",
"     -------------------------------------     ",
"                                               ",
"                                               ",
};
