/* XPM */
static char * frameIBR_xpm[] = {

/* Values */
"8 8 3 1",

/* Colors */
"  c None",
". c black",
"X c #202020",

/* Pixels */
"      XX",
"      XX",
"      XX",
"      XX",
"      XX",
"      XX",
"XXXXXXXX",
"XXXXXXXX",
};
