/* XPM */
static char * maximizeA_xpm[] = {

/* Values */
"45 58 4 1 ",

/* Colors */
"  c None",
". c black",
"X c white",
"o c #333333",

/* Pixels */
".............................................",
".............................................",
".............................................",
".............................................",
".............................................",
".............................................",
".............................................",
".............................................",
".............................................",
".................XXXXXXXXXX..................",
".................X........X..................",
".................X........X..................",
".................X........X..................",
".................X........X..................",
".................X........X..................",
".................X........X..................",
".................X........X..................",
".................X........X..................",
".................XXXXXXXXXX..................",
".............................................",
".............................................",
".............................................",
".............................................",
".............................................",
".............................................",
".............................................",
".............................................",
".............................................",
".............................................",
"ooooooooooooooooooooooooooooooooooooooooooooo",
"ooooooooooooooooooooooooooooooooooooooooooooo",
"ooooooooooooooooooooooooooooooooooooooooooooo",
"ooooooooooooooooooooooooooooooooooooooooooooo",
"ooooooooooooooooooooooooooooooooooooooooooooo",
"ooooooooooooooooooooooooooooooooooooooooooooo",
"ooooooooooooooooooooooooooooooooooooooooooooo",
"ooooooooooooooooooooooooooooooooooooooooooooo",
"ooooooooooooooooooooooooooooooooooooooooooooo",
"oooooooooooooooooXXXXXXXXXXoooooooooooooooooo",
"oooooooooooooooooXooooooooXoooooooooooooooooo",
"oooooooooooooooooXooooooooXoooooooooooooooooo",
"oooooooooooooooooXooooooooXoooooooooooooooooo",
"oooooooooooooooooXooooooooXoooooooooooooooooo",
"oooooooooooooooooXooooooooXoooooooooooooooooo",
"oooooooooooooooooXooooooooXoooooooooooooooooo",
"oooooooooooooooooXooooooooXoooooooooooooooooo",
"oooooooooooooooooXooooooooXoooooooooooooooooo",
"oooooooooooooooooXXXXXXXXXXoooooooooooooooooo",
"ooooooooooooooooooooooooooooooooooooooooooooo",
"ooooooooooooooooooooooooooooooooooooooooooooo",
"ooooooooooooooooooooooooooooooooooooooooooooo",
"ooooooooooooooooooooooooooooooooooooooooooooo",
"ooooooooooooooooooooooooooooooooooooooooooooo",
"ooooooooooooooooooooooooooooooooooooooooooooo",
"ooooooooooooooooooooooooooooooooooooooooooooo",
"ooooooooooooooooooooooooooooooooooooooooooooo",
"ooooooooooooooooooooooooooooooooooooooooooooo",
"ooooooooooooooooooooooooooooooooooooooooooooo",
};
